<?xml version="1.0" encoding="iso-8859-1"?>
<!-- Generator: Adobe Illustrator 19.1.0, SVG Export Plug-In . SVG Version: 6.00 Build 0)  -->
<svg version="1.1" id="Capa_1" xmlns="http://www.w3.org/2000/svg" xmlns:xlink="http://www.w3.org/1999/xlink" x="0px" y="0px"
	 viewBox="0 0 334.202 334.202" style="enable-background:new 0 0 334.202 334.202;" xml:space="preserve">
<g>
	<path d="M334.202,138.526c0-16.536-13.458-29.988-29.988-29.988h-47.597l-49.551-93.986c-5.437-10.315-17.385-14.711-26.671-9.814
		s-12.404,17.237-6.967,27.552l40.193,76.248h-93.054l40.193-76.248c5.444-10.315,2.32-22.655-6.967-27.552
		s-21.234-0.501-26.671,9.814l-49.544,93.986H29.994C13.458,108.538,0,121.989,0,138.526c0,11.96,7.095,22.23,17.25,27.038
		l18.638,147.065c0.238,10.424,8.792,18.837,19.274,18.837h223.866c10.482,0,19.043-8.413,19.281-18.837l18.638-147.059
		C327.107,160.756,334.202,150.492,334.202,138.526z M285.512,311.375l-0.051,0.81c0,3.548-2.873,6.427-6.427,6.427H55.162
		c-3.548,0-6.427-2.879-6.427-6.427L30.579,168.513h273.044L285.512,311.375z M310.943,154.278l-1.755,0.533
		c-0.88,0.264-1.671,0.45-2.436,0.591c-0.829,0.129-1.671,0.257-2.539,0.257H29.994c-0.874,0-1.71-0.135-2.545-0.257
		c-0.758-0.135-1.555-0.328-2.429-0.591l-1.755-0.533c-6.112-2.622-10.411-8.689-10.411-15.752c0-9.447,7.686-17.134,17.14-17.134
		h41.209c-3.078,9.415,0.296,19.55,8.496,23.876c9.287,4.897,21.234,0.501,26.671-9.814l7.41-14.062h106.608l7.417,14.062
		c5.437,10.315,17.385,14.711,26.671,9.814c8.194-4.325,11.575-14.46,8.496-23.876h41.222c9.441,0,17.134,7.686,17.134,17.134
		C321.348,145.589,317.055,151.649,310.943,154.278z M74.313,292.236V192.62c0-3.554,2.873-6.427,6.427-6.427
		c3.554,0,6.427,2.873,6.427,6.427v99.616c0,3.554-2.873,6.427-6.427,6.427C77.186,298.663,74.313,295.79,74.313,292.236z
		 M247.035,292.236V192.62c0-3.554,2.873-6.427,6.427-6.427s6.427,2.873,6.427,6.427v99.616c0,3.554-2.873,6.427-6.427,6.427
		S247.035,295.79,247.035,292.236z M189.457,292.236V192.62c0-3.554,2.873-6.427,6.427-6.427c3.554,0,6.427,2.873,6.427,6.427
		v99.616c0,3.554-2.873,6.427-6.427,6.427C192.329,298.663,189.457,295.79,189.457,292.236z M131.891,292.236V192.62
		c0-3.554,2.873-6.427,6.427-6.427s6.427,2.873,6.427,6.427v99.616c0,3.554-2.873,6.427-6.427,6.427S131.891,295.79,131.891,292.236
		z" fill="#FFFFFF"/>
</g>
<g>
</g>
<g>
</g>
<g>
</g>
<g>
</g>
<g>
</g>
<g>
</g>
<g>
</g>
<g>
</g>
<g>
</g>
<g>
</g>
<g>
</g>
<g>
</g>
<g>
</g>
<g>
</g>
<g>
</g>
</svg>
